<?xml version="1.0" encoding="utf-8"?>
<!-- Generator: Adobe Illustrator 16.0.0, SVG Export Plug-In . SVG Version: 6.00 Build 0)  -->
<!DOCTYPE svg PUBLIC "-//W3C//DTD SVG 1.1//EN" "http://www.w3.org/Graphics/SVG/1.1/DTD/svg11.dtd">
<svg version="1.1" id="Capa_1" xmlns="http://www.w3.org/2000/svg" xmlns:xlink="http://www.w3.org/1999/xlink" x="0px" y="0px"
	 width="566.93px" height="566.93px" viewBox="0 0 566.93 566.93" enable-background="new 0 0 566.93 566.93" xml:space="preserve">
<g>
	<g>
		<path fill="#F0A85E" d="M547.42,223.596c-0.072-0.253-0.157-0.502-0.256-0.747c0-0.104-0.057-0.227-0.104-0.331
			c-0.439-0.853-1.006-1.634-1.682-2.315c-0.151-0.161-0.341-0.274-0.501-0.425c-0.653-0.58-1.381-1.069-2.164-1.455
			c-0.283-0.132-0.548-0.265-0.841-0.369c-1.042-0.415-2.149-0.639-3.27-0.662H150.043l-2.485-3.099l121.919-38.281l1.483-0.463
			l2.183-0.681l117.176-36.797l24.862-7.805l36.797-11.548l89.46-28.075c4.979-1.565,7.745-6.87,6.18-11.849v-0.001L524.977,6.565
			c-0.057-0.17-0.188-0.284-0.255-0.454c-0.312-0.832-0.742-1.615-1.275-2.325c-0.171-0.227-0.303-0.473-0.492-0.68
			c-0.06-0.092-0.127-0.181-0.198-0.265c-0.662-0.682-1.428-1.256-2.268-1.701c-0.218-0.123-0.463-0.179-0.689-0.283
			c-0.771-0.347-1.584-0.592-2.42-0.728c-0.321-0.047-0.614-0.085-0.944-0.104c-1.119-0.084-2.242,0.038-3.317,0.359L249.056,83.278
			l-24.437,7.673l-41.957,13.173l-119.68,37.572H28.322c-5.219,0-9.45,4.231-9.45,9.45v387.436
			c0,15.657,12.692,28.349,28.349,28.349h472.483c15.656,0,28.349-12.691,28.349-28.349V226.742c0-0.179-0.095-0.331-0.104-0.51
			C547.899,225.332,547.721,224.444,547.42,223.596z M519.704,236.192l-42.523,56.699h-51.974l42.523-56.699H519.704z
			 M444.106,236.192l-42.523,56.699H349.61l42.523-56.699H444.106z M368.51,236.192l-42.523,56.699h-51.974l42.523-56.699H368.51z
			 M292.912,236.192l-42.523,56.699h-51.973l42.523-56.699H292.912z M217.315,236.192l-42.523,56.699h-4.725v-47.249
			c0.001-2.146-0.729-4.23-2.069-5.906l-2.74-3.42L217.315,236.192z M515.433,39.309l11.34,36.069l-27.064,8.486L515.433,39.309z
			 M466.332,34.896l34.473-10.811l-23.624,66.818l-31.458,9.875l-18.134,5.67l23.624-66.828L466.332,34.896z M385.141,60.391
			l43.487-13.664l-23.624,66.828l-49.582,15.564l23.624-66.837L385.141,60.391z M356.537,69.368l-23.625,66.819L283.34,151.75
			l23.624-66.818L356.537,69.368z M234.825,107.601l49.582-15.592l-23.624,66.856l-49.582,15.564L234.825,107.601z M212.335,114.622
			l-23.624,66.819l-30.542,9.601l-19.041,5.972l23.624-66.828L212.335,114.622z M140.121,137.292l-16.556,46.927l-26.667-33.357
			L140.121,137.292z M37.771,160.595h42.712l43.686,54.619l13.929,17.396l6.615,8.297l1.143,1.427l5.254,6.558v43.998H37.771
			V160.595z M529.153,538.581c0,5.219-4.231,9.449-9.449,9.449H47.221c-5.219,0-9.45-4.23-9.45-9.449V311.789h491.382V538.581z
			 M529.153,292.891h-28.349l28.349-37.799V292.891z"/>
	</g>
</g>
<g>
	<g>
		<rect x="56.671" y="255.091" fill="#F0A85E" width="18.899" height="18.899"/>
	</g>
</g>
<g>
	<g>
		<rect x="56.671" y="179.494" fill="#F0A85E" width="18.899" height="18.899"/>
	</g>
</g>
<g>
	<g>
		<rect x="113.369" y="255.091" fill="#F0A85E" width="18.899" height="18.899"/>
	</g>
</g>
<g>
	<g>
		<rect x="75.57" y="368.487" fill="#F0A85E" width="415.784" height="18.899"/>
	</g>
</g>
<g>
	<g>
		<polygon fill="#F0A85E" points="75.57,444.084 75.57,462.983 198.416,462.983 198.416,519.682 217.315,519.682 217.315,462.983 
			349.61,462.983 349.61,519.682 368.51,519.682 368.51,462.983 491.354,462.983 491.354,444.084 		"/>
	</g>
</g>
</svg>
